HIERARCHY
ROOT Hips
{
	OFFSET 0.000000 97.167313 0.000000
	CHANNELS 6 Xposition Yposition Zposition Xrotation Yrotation Zrotation
	JOINT Spine
	{
		OFFSET 0.000000 13.784798 0.064400
		CHANNELS 3 Xrotation Yrotation Zrotation
		JOINT Spine1
		{
			OFFSET 0.000000 12.037903 0.404700
			CHANNELS 3 Xrotation Yrotation Zrotation
			JOINT Spine2
			{
				OFFSET 0.000000 17.795601 0.420200
				CHANNELS 3 Xrotation Yrotation Zrotation
				JOINT Neck
				{
					OFFSET 0.000000 39.131302 11.954600
					CHANNELS 3 Xrotation Yrotation Zrotation
					JOINT Head
					{
						OFFSET 0.000000 14.456192 15.627699
						CHANNELS 3 Xrotation Yrotation Zrotation
						JOINT HeadTop_End
						{
							OFFSET 0.000000 15.703506 7.603401
							CHANNELS 3 Xrotation Yrotation Zrotation
							End Site
							{
								OFFSET 0.000000 17.447403 0.000000
							}
						}
					}
				}
				JOINT LeftShoulder
				{
					OFFSET 17.399500 24.608795 1.168800
					CHANNELS 3 Xrotation Yrotation Zrotation
					JOINT LeftArm
					{
						OFFSET 18.980635 5.765305 1.818600
						CHANNELS 3 Xrotation Yrotation Zrotation
						JOINT LeftForeArm
						{
							OFFSET 49.290169 0.000000 0.000000
							CHANNELS 3 Xrotation Yrotation Zrotation
							JOINT LeftHand
							{
								OFFSET 31.562012 0.000000 0.000000
								CHANNELS 3 Xrotation Yrotation Zrotation
								JOINT LeftHandThumb1
								{
									OFFSET 6.133995 -4.388519 7.076070
									CHANNELS 3 Xrotation Yrotation Zrotation
									JOINT LeftHandThumb2
									{
										OFFSET 6.037666 -3.485840 3.485847
										CHANNELS 3 Xrotation Yrotation Zrotation
										JOINT LeftHandThumb3
										{
											OFFSET 6.496506 -3.750763 3.750761
											CHANNELS 3 Xrotation Yrotation Zrotation
											JOINT LeftHandThumb4
											{
												OFFSET 5.616882 -3.242905 3.242910
												CHANNELS 3 Xrotation Yrotation Zrotation
												End Site
												{
													OFFSET -1.254608 7.132141 0.375429
												}
											}
										}
									}
								}
								JOINT LeftHandPinky1
								{
									OFFSET 18.920792 -0.453171 -11.426712
									CHANNELS 3 Xrotation Yrotation Zrotation
									JOINT LeftHandPinky2
									{
										OFFSET 4.919586 0.000000 0.000000
										CHANNELS 3 Xrotation Yrotation Zrotation
										JOINT LeftHandPinky3
										{
											OFFSET 5.233047 0.000000 0.000000
											CHANNELS 3 Xrotation Yrotation Zrotation
											JOINT LeftHandPinky4
											{
												OFFSET 5.571716 0.000000 0.000000
												CHANNELS 3 Xrotation Yrotation Zrotation
												End Site
												{
													OFFSET -3.459808 4.342407 -0.466164
												}
											}
										}
									}
								}
								JOINT LeftHandRing1
								{
									OFFSET 22.726120 -0.094986 -6.500475
									CHANNELS 3 Xrotation Yrotation Zrotation
									JOINT LeftHandRing2
									{
										OFFSET 6.408615 0.000000 0.000000
										CHANNELS 3 Xrotation Yrotation Zrotation
										JOINT LeftHandRing3
										{
											OFFSET 6.150223 0.000000 0.000000
											CHANNELS 3 Xrotation Yrotation Zrotation
											JOINT LeftHandRing4
											{
												OFFSET 6.145386 0.000000 0.000000
												CHANNELS 3 Xrotation Yrotation Zrotation
												End Site
												{
													OFFSET -3.671402 4.923981 -0.202372
												}
											}
										}
									}
								}
								JOINT LeftHandMiddle1
								{
									OFFSET 23.373947 0.000000 0.000001
									CHANNELS 3 Xrotation Yrotation Zrotation
									JOINT LeftHandMiddle2
									{
										OFFSET 6.996567 0.000000 0.000000
										CHANNELS 3 Xrotation Yrotation Zrotation
										JOINT LeftHandMiddle3
										{
											OFFSET 7.015945 0.000000 0.000000
											CHANNELS 3 Xrotation Yrotation Zrotation
											JOINT LeftHandMiddle4
											{
												OFFSET 7.721573 0.000000 0.000000
												CHANNELS 3 Xrotation Yrotation Zrotation
												End Site
												{
													OFFSET -4.651108 6.158463 0.251582
												}
											}
										}
									}
								}
								JOINT LeftHandIndex1
								{
									OFFSET 21.310577 -0.490082 6.209344
									CHANNELS 3 Xrotation Yrotation Zrotation
									JOINT LeftHandIndex2
									{
										OFFSET 7.536453 0.000000 0.000000
										CHANNELS 3 Xrotation Yrotation Zrotation
										JOINT LeftHandIndex3
										{
											OFFSET 7.512344 0.000000 0.000000
											CHANNELS 3 Xrotation Yrotation Zrotation
											JOINT LeftHandIndex4
											{
												OFFSET 10.212402 0.000000 0.000001
												CHANNELS 3 Xrotation Yrotation Zrotation
												End Site
												{
													OFFSET -5.180801 8.690506 1.388433
												}
											}
										}
									}
								}
							}
						}
					}
				}
				JOINT RightShoulder
				{
					OFFSET -17.399500 24.608795 1.168800
					CHANNELS 3 Xrotation Yrotation Zrotation
					JOINT RightArm
					{
						OFFSET -18.980635 5.765305 1.818600
						CHANNELS 3 Xrotation Yrotation Zrotation
						JOINT RightForeArm
						{
							OFFSET -49.290169 0.000000 0.000000
							CHANNELS 3 Xrotation Yrotation Zrotation
							JOINT RightHand
							{
								OFFSET -31.562012 0.000000 0.000000
								CHANNELS 3 Xrotation Yrotation Zrotation
								JOINT RightHandThumb1
								{
									OFFSET -6.133995 -4.388519 7.076070
									CHANNELS 3 Xrotation Yrotation Zrotation
									JOINT RightHandThumb2
									{
										OFFSET -6.037666 -3.485840 3.485847
										CHANNELS 3 Xrotation Yrotation Zrotation
										JOINT RightHandThumb3
										{
											OFFSET -6.496506 -3.750763 3.750761
											CHANNELS 3 Xrotation Yrotation Zrotation
											JOINT RightHandThumb4
											{
												OFFSET -5.616882 -3.242905 3.242910
												CHANNELS 3 Xrotation Yrotation Zrotation
												End Site
												{
													OFFSET 1.254608 7.132141 0.375429
												}
											}
										}
									}
								}
								JOINT RightHandIndex1
								{
									OFFSET -21.310577 -0.490082 6.209344
									CHANNELS 3 Xrotation Yrotation Zrotation
									JOINT RightHandIndex2
									{
										OFFSET -7.536453 0.000000 0.000000
										CHANNELS 3 Xrotation Yrotation Zrotation
										JOINT RightHandIndex3
										{
											OFFSET -7.512344 0.000000 0.000000
											CHANNELS 3 Xrotation Yrotation Zrotation
											JOINT RightHandIndex4
											{
												OFFSET -10.212402 0.000000 0.000001
												CHANNELS 3 Xrotation Yrotation Zrotation
												End Site
												{
													OFFSET 5.180801 8.690506 1.388433
												}
											}
										}
									}
								}
								JOINT RightHandMiddle1
								{
									OFFSET -23.373947 0.000000 0.000001
									CHANNELS 3 Xrotation Yrotation Zrotation
									JOINT RightHandMiddle2
									{
										OFFSET -6.996567 0.000000 0.000000
										CHANNELS 3 Xrotation Yrotation Zrotation
										JOINT RightHandMiddle3
										{
											OFFSET -7.015945 0.000000 0.000000
											CHANNELS 3 Xrotation Yrotation Zrotation
											JOINT RightHandMiddle4
											{
												OFFSET -7.721573 0.000000 0.000000
												CHANNELS 3 Xrotation Yrotation Zrotation
												End Site
												{
													OFFSET 4.651108 6.158463 0.251582
												}
											}
										}
									}
								}
								JOINT RightHandRing1
								{
									OFFSET -22.726120 -0.094986 -6.500475
									CHANNELS 3 Xrotation Yrotation Zrotation
									JOINT RightHandRing2
									{
										OFFSET -6.408615 0.000000 0.000000
										CHANNELS 3 Xrotation Yrotation Zrotation
										JOINT RightHandRing3
										{
											OFFSET -6.150223 0.000000 0.000000
											CHANNELS 3 Xrotation Yrotation Zrotation
											JOINT RightHandRing4
											{
												OFFSET -6.145386 0.000000 0.000000
												CHANNELS 3 Xrotation Yrotation Zrotation
												End Site
												{
													OFFSET 3.671402 4.923981 -0.202372
												}
											}
										}
									}
								}
								JOINT RightHandPinky1
								{
									OFFSET -18.920792 -0.453171 -11.426712
									CHANNELS 3 Xrotation Yrotation Zrotation
									JOINT RightHandPinky2
									{
										OFFSET -4.919586 0.000000 0.000000
										CHANNELS 3 Xrotation Yrotation Zrotation
										JOINT RightHandPinky3
										{
											OFFSET -5.233047 0.000000 0.000000
											CHANNELS 3 Xrotation Yrotation Zrotation
											JOINT RightHandPinky4
											{
												OFFSET -5.571716 0.000000 0.000000
												CHANNELS 3 Xrotation Yrotation Zrotation
												End Site
												{
													OFFSET 3.459808 4.342407 -0.466164
												}
											}
										}
									}
								}
							}
						}
					}
				}
			}
		}
	}
	JOINT LeftUpLeg
	{
		OFFSET 19.899099 -7.885101 -3.429500
		CHANNELS 3 Xrotation Yrotation Zrotation
		JOINT LeftLeg
		{
			OFFSET 1.745560 -36.997807 10.304700
			CHANNELS 3 Xrotation Yrotation Zrotation
			JOINT LeftFoot
			{
				OFFSET -1.745558 -29.803308 -13.615400
				CHANNELS 3 Xrotation Yrotation Zrotation
				JOINT LeftToeBase
				{
					OFFSET 1.181900 -18.539904 15.226099
					CHANNELS 3 Xrotation Yrotation Zrotation
					JOINT LeftToe_End
					{
						OFFSET -0.863701 1.402801 16.534700
						CHANNELS 3 Xrotation Yrotation Zrotation
						End Site
						{
							OFFSET 0.000000 16.616566 0.000000
						}
					}
				}
			}
		}
	}
	JOINT RightUpLeg
	{
		OFFSET -19.899099 -7.885101 -3.429500
		CHANNELS 3 Xrotation Yrotation Zrotation
		JOINT RightLeg
		{
			OFFSET -1.745560 -36.997807 10.304700
			CHANNELS 3 Xrotation Yrotation Zrotation
			JOINT RightFoot
			{
				OFFSET 1.745558 -29.803308 -13.615400
				CHANNELS 3 Xrotation Yrotation Zrotation
				JOINT RightToeBase
				{
					OFFSET -1.181900 -18.539904 15.226099
					CHANNELS 3 Xrotation Yrotation Zrotation
					JOINT RightToe_End
					{
						OFFSET 0.863701 1.402801 16.534700
						CHANNELS 3 Xrotation Yrotation Zrotation
						End Site
						{
							OFFSET 0.000000 16.616566 0.000000
						}
					}
				}
			}
		}
	}
}
MOTION
Frames: 4
Frame Time: 0.033333
-1.174881 72.287048 -5.261642 -0.102364 -177.927862 0.078474 15.685968 2.343459 0.819020 2.587589 0.521689 0.458031 2.590849 0.496345 0.450427 0.862647 -0.755224 0.884767 -27.912768 -3.684201 -5.536969 -0.000000 0.000000 0.000000 0.538672 -4.328696 -16.179994 29.263864 12.932569 -72.985728 0.000029 -55.431609 0.000023 4.979350 3.703991 -0.156593 -2.832638 -1.477335 13.645878 19.240330 19.690206 -6.942270 -18.674268 -19.016150 13.024334 -0.000000 -0.000000 -0.000001 1.991616 7.120091 -36.160422 0.708863 2.795305 -28.454401 0.345402 1.983612 -19.753392 -0.000001 0.000002 0.000001 4.144533 9.374837 -39.505903 1.451754 3.861382 -41.196815 0.221124 1.595900 -15.775929 0.000000 -0.000001 0.000003 1.505374 6.216133 -38.017799 0.846953 3.035999 -31.168680 0.373256 2.059498 -20.543215 -0.000000 0.000000 0.000009 -0.860249 2.184282 -28.931561 0.745527 2.861856 -29.197529 0.245038 1.678204 -16.612933 -0.000002 0.000000 -0.000001 0.411561 5.768847 18.389666 5.191512 -0.885447 54.986441 0.000011 40.557615 -0.000006 13.088412 6.113377 -4.658644 -8.879584 4.825546 -8.712533 17.703321 -27.978883 -1.443590 -5.739851 17.590312 -12.555335 0.000001 -0.000001 0.000002 -0.329058 -2.295693 22.502208 1.145060 -3.060401 41.019285 0.241776 -1.482507 18.523738 -0.000001 0.000000 0.000001 1.411808 -5.682548 35.397923 0.992224 -2.875541 38.068370 0.150523 -1.175671 14.591374 0.000001 0.000001 -0.000001 3.805716 -8.246663 41.741472 0.788886 -2.595324 33.809214 0.206826 -1.373849 17.121860 -0.000000 0.000003 -0.000005 1.189436 -5.348044 44.678774 1.008074 -2.895593 38.382736 0.474651 -2.050189 26.068182 -0.000001 -0.000001 -0.000001 -46.673712 -6.766020 9.809511 85.843306 4.703592 0.155566 -4.017213 2.758003 -6.387814 -10.994272 3.430588 -12.693555 -0.000001 0.000002 0.000000 -37.560668 -1.245920 -9.205589 71.613297 8.269662 -0.092956 -24.727556 -1.001890 1.306214 -11.645274 0.000001 0.000001 0.000000 0.000000 -0.000000 
-1.123980 71.410179 4.998055 1.156972 -177.638891 -0.828315 15.197014 0.131800 1.532240 2.514682 -0.053643 0.654134 2.513523 -0.080605 0.664210 1.033813 -0.412977 0.168266 -26.405004 -0.812528 -5.762965 0.000000 0.000000 0.000000 0.536946 -4.469942 -15.471364 23.244309 10.987983 -68.717099 -0.000015 -65.328601 -0.000003 4.925453 1.337576 2.242964 -2.832637 -1.477336 13.645880 18.817999 19.017260 -6.560234 -19.272673 -17.309711 11.785641 0.000001 0.000002 0.000004 1.958802 6.863751 -37.696811 0.732658 2.838727 -28.938596 0.328347 1.935460 -19.254390 -0.000001 0.000000 -0.000002 4.210584 9.247252 -41.351813 1.565784 3.987595 -42.862835 0.206358 1.542690 -15.236690 0.000000 -0.000002 0.000005 1.459874 6.151323 -39.586035 0.914172 3.144285 -32.415525 0.360059 2.023953 -20.172791 0.000000 0.000000 0.000006 -0.883096 1.802622 -30.325432 0.843914 3.030984 -31.111341 0.224511 1.607852 -15.897108 -0.000000 0.000003 0.000001 0.417143 5.568876 18.910967 15.143943 -7.622686 58.892739 0.000024 41.733914 -0.000032 11.857152 4.472502 -0.759142 -8.879581 4.825541 -8.712538 11.805089 -19.504713 -6.904816 -4.660747 19.992659 -14.748549 0.000001 -0.000003 0.000002 -0.207128 -1.910870 21.502675 1.117395 -3.028343 40.498367 0.236038 -1.465289 18.300935 -0.000000 -0.000001 0.000001 1.338501 -5.609466 34.180825 1.021895 -2.912975 38.655879 0.140831 -1.137791 14.111181 -0.000001 0.000001 -0.000004 4.872706 -9.574745 40.762378 0.896679 -2.749321 36.121182 0.201148 -1.355277 16.883164 -0.000001 0.000001 -0.000003 1.591713 -7.115239 46.693277 1.221651 -3.146149 42.434039 0.495076 -2.091394 26.633221 -0.000001 0.000000 0.000000 -30.058529 -6.116419 14.832410 91.661180 1.632651 -0.910684 -11.619293 2.117640 -8.189942 -12.386104 4.501673 -15.120697 -0.000001 0.000001 0.000000 -47.551815 0.239632 -8.317923 68.372939 7.962707 0.282046 -12.660003 -1.430440 3.798150 -9.637389 -0.000001 0.000002 0.000000 -0.000000 0.000000 
-1.415689 72.306633 15.161985 3.148303 -173.188257 -1.216597 15.060804 -4.972025 2.471230 2.405938 -1.387612 0.618314 2.399498 -1.399852 0.660795 1.519484 -0.133190 -0.988971 -24.493540 1.918003 -6.796813 -0.000001 0.000000 -0.000000 0.488329 -5.738628 -14.630817 20.065284 10.962015 -61.958039 -0.000182 -83.178467 -0.000202 9.149435 -0.534558 6.734851 -2.832637 -1.477339 13.645876 19.175054 19.586233 -6.881913 -19.976673 -10.052045 6.654981 0.000001 -0.000000 -0.000001 0.497419 5.006340 -39.960268 0.830379 3.008479 -30.854399 0.329330 1.938282 -19.283595 -0.000001 0.000001 -0.000000 3.793195 8.512898 -44.691178 1.825003 4.249178 -46.470992 0.195537 1.502383 -14.829234 0.000000 -0.000005 0.000001 1.874193 6.590701 -44.663929 0.957401 3.211224 -33.195177 0.351381 2.000173 -19.925422 0.000001 -0.000000 0.000004 -0.999717 2.107793 -38.350860 1.075872 3.385107 -35.254240 0.209827 1.555351 -15.364857 -0.000002 0.000001 0.000001 0.622258 2.965433 17.784208 27.377966 -12.818161 64.163555 0.000035 51.559206 -0.000031 10.336267 4.028200 1.695408 -8.879576 4.825541 -8.712535 8.431263 -11.771010 -10.380074 -5.640389 18.217392 -12.253413 0.000001 -0.000001 0.000001 -0.065446 -1.414835 18.495370 1.080107 -2.984207 39.787515 0.239844 -1.476737 18.449101 -0.000000 -0.000003 -0.000001 1.277581 -5.636690 30.417592 0.995235 -2.879368 38.128285 0.121229 -1.056808 13.087956 -0.000001 0.000001 -0.000004 5.796676 -11.776856 35.471580 1.030768 -2.924015 38.830073 0.200244 -1.352281 16.844686 -0.000000 -0.000003 -0.000007 1.603616 -9.806693 42.932612 1.332922 -3.263513 44.424114 0.517376 -2.135249 27.237947 -0.000000 -0.000004 0.000002 -15.846720 -6.348041 16.048986 89.779777 -1.093665 0.172602 -11.310500 2.481537 -10.139163 -4.997535 2.207943 -12.435462 -0.000001 0.000000 -0.000000 -51.147223 -0.344839 -11.077444 59.560650 7.357138 1.601187 0.757195 -1.335256 5.667523 -7.008411 0.000002 -0.000002 -0.000000 0.000000 0.000000 
-1.668926 74.647278 25.412560 4.129970 -168.952461 -1.516753 15.157100 -9.540368 3.090818 2.288224 -2.571502 0.381687 2.291775 -2.564558 0.446466 1.822347 -0.004806 -2.270726 -22.453485 3.899206 -8.322516 0.000000 -0.000000 0.000000 0.427929 -7.804116 -13.753070 14.338522 12.423575 -53.393119 -0.000001 -101.016954 -0.000008 13.985362 1.049677 10.240465 -2.832638 -1.477335 13.645878 19.269623 19.756860 -6.975976 -19.467962 -6.715600 4.592285 0.000002 -0.000002 0.000000 -0.539683 3.748275 -39.737289 0.847966 3.037657 -31.187685 0.334650 1.953472 -19.440836 -0.000000 0.000004 -0.000002 3.242277 7.962990 -44.667812 1.913975 4.331706 -47.660227 0.189431 1.479174 -14.594769 -0.000002 -0.000001 -0.000000 1.726304 6.447924 -46.454797 0.924426 3.160375 -32.602180 0.339155 1.966131 -19.571946 -0.000001 -0.000003 0.000004 -1.057690 2.425537 -42.972538 1.155626 3.495010 -36.583316 0.201088 1.523270 -15.040153 -0.000002 -0.000002 -0.000001 0.690121 1.262643 15.158669 36.654145 -16.459931 70.506431 0.000068 61.154939 -0.000055 8.781602 1.476030 3.520821 -8.879582 4.825541 -8.712540 8.230378 -11.064600 -10.635562 -6.272152 16.705693 -10.727323 0.000001 -0.000003 0.000001 -0.001397 -1.287802 18.465280 0.990417 -2.873231 38.032279 0.241534 -1.481797 18.514473 0.000000 -0.000001 -0.000002 1.194798 -5.510069 30.030020 0.930621 -2.795187 36.822902 0.104820 -0.983573 12.166369 0.000000 -0.000003 -0.000002 5.534456 -11.707326 34.260488 1.016992 -2.906832 38.559153 0.200288 -1.352435 16.846735 -0.000000 -0.000001 -0.000007 1.422103 -10.262066 41.252936 1.324436 -3.254850 44.274939 0.523035 -2.146199 27.389419 -0.000001 0.000000 0.000000 -8.013575 -6.476163 15.646129 84.288988 -3.387073 2.277993 -8.960404 2.195407 -10.779957 1.013566 0.524698 -6.575233 -0.000000 0.000000 -0.000000 -51.381768 -1.378687 -14.274459 44.433171 5.578160 2.507230 17.835024 0.172464 8.353332 -7.294251 -0.000002 -0.000002 0.000000 0.000000 -0.000000 
